<?xml version="1.0" encoding="UTF-8"?>
<svg width="481px" height="120px" viewBox="0 0 481 120" version="1.1" xmlns="http://www.w3.org/2000/svg" xmlns:xlink="http://www.w3.org/1999/xlink">
    <!-- Generator: Sketch 45 (43475) - http://www.bohemiancoding.com/sketch -->
    <title>Page 1</title>
    <desc>Created with Sketch.</desc>
    <defs>
        <linearGradient x1="9.76375299%" y1="-119.244159%" x2="113.922872%" y2="361.895103%" id="linearGradient-1">
            <stop stop-color="#F3AC72" offset="0%"></stop>
            <stop stop-color="#925525" offset="67.1875%"></stop>
            <stop stop-color="#F2B986" offset="81.25%"></stop>
            <stop stop-color="#81481E" offset="100%"></stop>
        </linearGradient>
    </defs>
    <g id="Page-1" stroke="none" stroke-width="1" fill="none" fill-rule="evenodd">
        <g id="Artboard" transform="translate(-63.000000, -248.000000)" fill="url(#linearGradient-1)">
            <path d="M65.9696634,280.539731 C65.9696634,318.55483 121.077688,312.244106 121.077688,332.825568 L121.077688,332.825568 C121.077688,341.126295 113.283507,346.439002 103.487262,346.439002 L103.487262,346.439002 C93.3623648,346.439002 85.5561233,342.124312 77.5961088,335.150254 L77.5961088,335.150254 C76.2694397,333.989419 74.9427706,334.152237 73.9417385,335.319103 L73.9417385,335.319103 L63.9826749,346.107335 C62.9816428,347.265155 62.9816428,348.432021 63.8168413,349.592856 L63.8168413,349.592856 C71.4451885,358.719737 86.0596545,367.686814 102.989761,367.686814 L102.989761,367.686814 C123.239556,367.686814 143.326532,355.2312 143.326532,333.323069 L143.326532,333.323069 C143.326532,292.992329 88.0526733,301.455875 88.0526733,281.040247 L88.0526733,281.040247 C88.0526733,274.232022 93.5312136,269.250983 102.817897,269.250983 L102.817897,269.250983 C111.12164,269.250983 116.928832,272.248049 125.066741,278.552742 L125.066741,278.552742 C126.39341,279.550759 127.55726,279.38191 128.546232,278.055241 L128.546232,278.055241 L137.682158,266.929312 C138.842993,265.602643 138.842993,264.607641 137.682158,263.44379 L137.682158,263.44379 C128.380398,254.154092 116.60018,248.006186 102.160593,248.006186 L102.160593,248.006186 C83.0656036,248.006186 65.9696634,260.292951 65.9696634,280.539731 M464.225648,323.831355 C464.225648,347.732505 481.65024,366.489796 507.049923,366.489796 L507.049923,366.489796 C518.830141,366.489796 529.461585,361.840424 537.255766,354.034183 L537.255766,354.034183 C538.582435,352.713544 538.582435,351.552708 537.42763,350.385843 L537.42763,350.385843 L530.118889,343.248966 C528.964084,342.091146 527.969082,342.091146 526.473564,343.083132 L526.473564,343.083132 C520.82919,347.06917 515.679302,348.730521 509.21179,348.730521 L509.21179,348.730521 C496.43054,348.730521 488.132828,342.585631 485.97096,331.7974 L485.97096,331.7974 L538.087949,331.7974 C543.065973,331.7974 543.901172,328.474697 543.901172,322.001155 L543.901172,322.001155 C543.901172,299.924175 528.79222,281.172914 505.228768,281.172914 L505.228768,281.172914 C481.65024,281.172914 464.225648,299.924175 464.225648,323.831355 M505.084041,299.910747 C514.880286,299.910747 522.674467,306.224485 524.166969,317.670021 L524.166969,317.670021 L485.331747,317.670021 C487.152902,306.224485 495.127992,299.910747 505.084041,299.910747 M387.197432,294.958211 L370.915584,285.740876 C369.474339,284.978042 367.740624,286.030331 367.740624,287.658516 L367.740624,287.658516 L367.740624,361.840424 C367.740624,363.215336 368.853217,364.330944 370.231143,364.330944 L370.231143,364.330944 L387.16125,364.330944 C388.530131,364.330944 389.645739,363.215336 389.645739,361.840424 L389.645739,361.840424 L389.645739,317.357813 C389.645739,313.540624 395.287098,301.419693 407.576878,301.419693 L407.576878,301.419693 C415.542923,301.419693 422.848648,306.07208 422.848648,319.51365 L422.848648,319.51365 L422.848648,361.840424 C422.848648,363.215336 423.964256,364.330944 425.336153,364.330944 L425.336153,364.330944 L442.263244,364.330944 C443.641171,364.330944 444.756779,363.215336 444.756779,361.840424 L444.756779,361.840424 L444.756779,315.530628 C444.756779,293.78833 431.972513,281.172914 415.380104,281.172914 L415.380104,281.172914 C403.587825,281.172914 392.510138,286.328832 387.197432,294.958211 M287.694235,294.958211 L271.418418,285.740876 C269.977173,284.978042 268.240442,286.030331 268.240442,287.658516 L268.240442,287.658516 L268.240442,361.840424 C268.240442,363.215336 269.353035,364.330944 270.730962,364.330944 L270.730962,364.330944 L287.667099,364.330944 C289.03598,364.330944 290.154603,363.215336 290.154603,361.840424 L290.154603,361.840424 L290.154603,317.357813 C290.154603,313.540624 295.798977,301.419693 308.073682,301.419693 L308.073682,301.419693 C316.051787,301.419693 323.351482,306.07208 323.351482,319.51365 L323.351482,319.51365 L323.351482,361.840424 C323.351482,363.215336 324.464075,364.330944 325.842002,364.330944 L325.842002,364.330944 L342.775124,364.330944 C344.14099,364.330944 345.256598,363.215336 345.256598,361.840424 L345.256598,361.840424 L345.256598,315.530628 C345.256598,293.78833 332.472332,281.172914 315.882938,281.172914 L315.882938,281.172914 C304.093674,281.172914 293.012972,286.328832 287.694235,294.958211 M162.709947,323.831355 C162.709947,347.732505 181.461208,366.489796 204.870887,366.489796 L204.870887,366.489796 C228.271521,366.489796 247.025798,347.732505 247.025798,323.831355 L247.025798,323.831355 C247.025798,299.924175 228.271521,281.172914 204.870887,281.172914 L204.870887,281.172914 C181.461208,281.172914 162.709947,299.924175 162.709947,323.831355 M183.816046,324.690675 C183.816046,311.571726 193.105745,302.279013 204.895009,302.279013 L204.895009,302.279013 C216.515424,302.279013 225.970956,311.571726 225.970956,324.690675 L225.970956,324.690675 C225.970956,337.803592 216.515424,347.093291 204.895009,347.093291 L204.895009,347.093291 C193.105745,347.093291 183.816046,337.803592 183.816046,324.690675" id="Page-1"></path>
        </g>
    </g>
</svg>